<svg xmlns="http://www.w3.org/2000/svg" width="16" height="15.992" viewBox="0 0 16 15.992">
  <g id="bank-building" transform="translate(0 -0.012)">
    <g id="Layer_1_78_" transform="translate(0 0.012)">
      <g id="Group_8860" data-name="Group 8860" transform="translate(0)">
        <path id="Path_10630" data-name="Path 10630" d="M15.266,42.718H.727a.727.727,0,1,0,0,1.454H15.266a.727.727,0,0,0,0-1.454Z" transform="translate(0 -28.18)" fill="#f1a00a"/>
        <path id="Path_10631" data-name="Path 10631" d="M3.4,23.08a.727.727,0,0,0,0,1.455H16.118a.727.727,0,0,0,0-1.455h-.181V16.537h.181a.363.363,0,0,0,0-.726H3.4a.363.363,0,0,0,0,.726h.182V23.08H3.4Zm11.086-6.543V23.08H12.3V16.537Zm-3.635,0V23.08H8.666V16.537Zm-5.815,0H7.212V23.08H5.032Z" transform="translate(-1.76 -10.433)" fill="#f1a00a"/>
        <path id="Path_10632" data-name="Path 10632" d="M.727,4.736H15.273a.727.727,0,0,0,.236-1.415L8.3.075a.729.729,0,0,0-.6,0L.429,3.346a.727.727,0,0,0,.3,1.39Z" transform="translate(0 -0.012)" fill="#f1a00a"/>
      </g>
    </g>
  </g>
</svg>
