<svg width="110" height="87" viewBox="0 0 110 87" fill="none" xmlns="http://www.w3.org/2000/svg">
<path d="M8.41406 42.7537C8.56592 43.0707 8.72536 43.3906 8.8886 43.7028L9.04426 43.6212C8.88197 43.3118 8.72252 42.9957 8.56972 42.6797L8.41406 42.7537Z" fill="#CCCCCC"/>
<path d="M9.39795 44.6244C9.57444 44.929 9.75951 45.2337 9.94743 45.5307L10.0955 45.4358C9.90567 45.1407 9.72535 44.8379 9.54882 44.5352L9.39795 44.6244Z" fill="#CCCCCC"/>
<path d="M7.57764 40.8058C7.70196 41.1332 7.83578 41.4635 7.97435 41.7871L8.13571 41.7178C7.99809 41.3961 7.86521 41.0677 7.74183 40.7422L7.57764 40.8058Z" fill="#CCCCCC"/>
<path d="M10.5352 46.42C10.7354 46.7047 10.9442 46.9989 11.1568 47.2798L11.2973 47.1745C11.0866 46.8955 10.8797 46.605 10.6804 46.3203L10.5352 46.42Z" fill="#CCCCCC"/>
<path d="M29.0156 5.24491L29.0365 5.41956C29.3839 5.37685 29.7369 5.34077 30.0862 5.3123L30.072 5.13672C29.7208 5.16614 29.3649 5.20221 29.0156 5.24491Z" fill="#CCCCCC"/>
<path d="M6.0594 32.5117L5.88379 32.5193C5.89803 32.8714 5.91987 33.2273 5.94835 33.5794L6.12393 33.5652C6.09545 33.2159 6.07458 32.8619 6.0594 32.5117Z" fill="#CCCCCC"/>
<path d="M6.90381 38.7994C6.99872 39.1382 7.1088 39.4789 7.22079 39.813L7.38782 39.757C7.27678 39.4248 7.17049 39.086 7.07369 38.75L6.90381 38.7994Z" fill="#CCCCCC"/>
<path d="M6.03791 31.431C6.03791 31.0894 6.04455 30.7449 6.05783 30.4051L5.88225 30.3984C5.86897 30.7401 5.8623 31.0875 5.8623 31.4301V31.4595H6.03791V31.431Z" fill="#CCCCCC"/>
<path d="M6.05518 34.6342C6.09788 34.9844 6.1501 35.3384 6.2042 35.6857L6.37786 35.6573C6.32187 35.3128 6.27251 34.9616 6.2298 34.6133L6.05518 34.6342Z" fill="#CCCCCC"/>
<path d="M6.11843 29.3518C6.14596 29.0016 6.18107 28.6485 6.22094 28.302L6.04628 28.2812C6.00452 28.6305 5.96942 28.9864 5.94189 29.3385L6.11748 29.3518H6.11843Z" fill="#CCCCCC"/>
<path d="M11.8096 48.1189C12.0326 48.3912 12.2641 48.6636 12.4985 48.9275L12.6295 48.8107C12.397 48.5488 12.1664 48.2783 11.9453 48.0078L11.8096 48.1189Z" fill="#CCCCCC"/>
<path d="M25.9404 57.0469C26.2821 57.1304 26.6304 57.2082 26.9768 57.2785L27.0119 57.1057C26.6684 57.0364 26.322 56.9585 25.9822 56.875L25.9404 57.0469Z" fill="#CCCCCC"/>
<path d="M24.8589 6.1004L24.9082 6.26933C25.2442 6.17442 25.5868 6.07951 25.9276 5.99504L25.8858 5.82422C25.5422 5.90964 25.1996 6.0017 24.8589 6.1004Z" fill="#CCCCCC"/>
<path d="M26.9199 5.59014L26.9549 5.76193C27.2976 5.6917 27.6468 5.62812 27.9923 5.57212L27.9638 5.39844C27.6165 5.45538 27.2644 5.51991 26.9199 5.59014Z" fill="#CCCCCC"/>
<path d="M28.022 57.4706C28.3693 57.5256 28.7233 57.575 29.0736 57.6167L29.0944 57.443C28.7461 57.4013 28.395 57.3481 28.0504 57.2969L28.022 57.4706Z" fill="#CCCCCC"/>
<path d="M23.8984 56.46C24.2325 56.571 24.5732 56.6773 24.913 56.7751L24.9614 56.6062C24.6245 56.5113 24.2857 56.404 23.9544 56.293L23.8984 56.46Z" fill="#CCCCCC"/>
<path d="M14.7515 51.175C15.0153 51.4094 15.2877 51.641 15.561 51.864L15.673 51.7274C15.4016 51.5062 15.1311 51.2756 14.8692 51.043L14.7515 51.175Z" fill="#CCCCCC"/>
<path d="M16.3975 52.5233C16.6822 52.7349 16.967 52.9436 17.2593 53.1448L17.3589 53.0007C17.0742 52.8014 16.7819 52.5935 16.5048 52.3828L16.3975 52.5233Z" fill="#CCCCCC"/>
<path d="M13.3469 49.5781L13.2197 49.6997C13.4646 49.9541 13.717 50.2064 13.9705 50.4503L14.0919 50.3232C13.8414 50.084 13.588 49.8325 13.3469 49.5781Z" fill="#CCCCCC"/>
<path d="M21.9097 55.7043C22.2352 55.8429 22.5673 55.9767 22.8976 56.102L22.9603 55.9379C22.6319 55.8136 22.3016 55.6806 21.979 55.543L21.9097 55.7043Z" fill="#CCCCCC"/>
<path d="M19.9863 54.7961C20.2986 54.9603 20.6184 55.1207 20.9354 55.2706L21.0104 55.1113C20.6934 54.9613 20.3755 54.8019 20.0613 54.6367L19.9863 54.7961Z" fill="#CCCCCC"/>
<path d="M18.1455 53.7272C18.4426 53.917 18.7491 54.1011 19.0547 54.2776L19.143 54.1258C18.8383 53.9493 18.5346 53.7651 18.2395 53.5781L18.1455 53.7272Z" fill="#CCCCCC"/>
<path d="M6.39502 36.7256C6.46525 37.071 6.54403 37.4194 6.62849 37.762L6.79933 37.7202C6.71581 37.3795 6.63799 37.034 6.56776 36.6914L6.39502 36.7256Z" fill="#CCCCCC"/>
<path d="M17.3345 9.87531C17.6192 9.676 17.9182 9.47956 18.2124 9.29259L18.1175 9.14453C17.8214 9.33435 17.5234 9.52984 17.2339 9.73105L17.3345 9.87531Z" fill="#CCCCCC"/>
<path d="M6.36854 27.2531C6.42454 26.9076 6.48716 26.5584 6.55834 26.2148L6.3856 26.1797C6.31537 26.5252 6.2518 26.8763 6.1958 27.2237L6.36946 27.2512L6.36854 27.2531Z" fill="#CCCCCC"/>
<path d="M13.3275 13.2934L13.2004 13.1719C12.9564 13.4262 12.7144 13.6891 12.481 13.953L12.6129 14.0697C12.8435 13.8078 13.0846 13.5468 13.3275 13.2934Z" fill="#CCCCCC"/>
<path d="M20.0343 8.23769L19.9526 8.08203C19.6404 8.24622 19.3291 8.41896 19.0254 8.59454L19.1137 8.74639C19.4145 8.57176 19.7239 8.40093 20.0343 8.23769Z" fill="#CCCCCC"/>
<path d="M14.8475 11.8311L14.7299 11.6992C14.466 11.9336 14.2041 12.1738 13.9497 12.4196L14.0712 12.5458C14.3255 12.3038 14.5846 12.0627 14.8475 11.8311Z" fill="#CCCCCC"/>
<path d="M58.4179 28.1883C58.3752 27.839 58.323 27.485 58.2679 27.1367L58.0942 27.1652C58.1512 27.5116 58.2005 27.8628 58.2432 28.2092L58.4179 28.1883Z" fill="#CCCCCC"/>
<path d="M58.4146 30.3138L58.5911 30.3062C58.5768 29.9551 58.5551 29.5982 58.5257 29.2461L58.3501 29.2603C58.3786 29.6105 58.4004 29.9646 58.4146 30.3138Z" fill="#CCCCCC"/>
<path d="M23.9001 6.585L23.8441 6.41797C23.51 6.52996 23.1731 6.65049 22.8447 6.77576L22.9074 6.93997C23.2339 6.81564 23.5679 6.69604 23.9001 6.585Z" fill="#CCCCCC"/>
<path d="M20.9744 7.76695C21.2895 7.617 21.6121 7.47084 21.9329 7.33322L21.8637 7.17188C21.54 7.31044 21.2154 7.45659 20.8984 7.60844L20.9744 7.76695Z" fill="#CCCCCC"/>
<path d="M15.6496 11.147C15.9201 10.9249 16.1991 10.7057 16.4781 10.4959L16.3718 10.3555C16.0871 10.5671 15.81 10.7873 15.5376 11.0113L15.6486 11.147H15.6496Z" fill="#CCCCCC"/>
<path d="M8.55212 20.2156L8.3936 20.1406C8.2427 20.4595 8.0956 20.786 7.95703 21.1115L8.11744 21.1799C8.25505 20.8572 8.40026 20.5326 8.55212 20.2156Z" fill="#CCCCCC"/>
<path d="M6.78557 25.1879C6.86909 24.8481 6.96021 24.5045 7.05702 24.1695L6.88807 24.1211C6.79316 24.459 6.69827 24.8044 6.61475 25.1471L6.78557 25.1888V25.1879Z" fill="#CCCCCC"/>
<path d="M7.72616 22.1593L7.56196 22.0977C7.43668 22.4289 7.3171 22.762 7.20605 23.1008L7.37309 23.1568C7.48034 22.8237 7.59899 22.4887 7.72616 22.1593Z" fill="#CCCCCC"/>
<path d="M11.9302 14.8728L11.7935 14.7617C11.5705 15.0351 11.3503 15.316 11.1387 15.5979L11.2791 15.7032C11.4889 15.4213 11.7081 15.1423 11.9302 14.8728Z" fill="#CCCCCC"/>
<path d="M9.53347 18.3422L9.38162 18.2539C9.20604 18.5595 9.03238 18.8737 8.86914 19.1859L9.02383 19.2675C9.18613 18.9562 9.3579 18.6459 9.53347 18.3422Z" fill="#CCCCCC"/>
<path d="M10.6619 16.5606L10.5177 16.4609C10.3174 16.7513 10.12 17.0494 9.93115 17.3474L10.0792 17.4423C10.2671 17.15 10.4626 16.8491 10.6619 16.5606Z" fill="#CCCCCC"/>
<path d="M53.304 15.5508L53.1636 15.6571C53.3743 15.9361 53.5821 16.2265 53.7814 16.5113L53.9257 16.4115C53.7254 16.1211 53.5157 15.8317 53.304 15.5508Z" fill="#CCCCCC"/>
<path d="M53.7983 46.3162L53.9425 46.4159C54.1437 46.1255 54.3412 45.8265 54.5301 45.5285L54.382 45.4336C54.1941 45.7307 53.9976 46.0268 53.7983 46.3162Z" fill="#CCCCCC"/>
<path d="M54.5118 17.293L54.3638 17.3879C54.5536 17.6821 54.7349 17.9849 54.9114 18.2876L55.0632 18.1993C54.8858 17.8936 54.7007 17.5891 54.5118 17.293Z" fill="#CCCCCC"/>
<path d="M55.578 19.1289L55.4224 19.2105C55.5856 19.519 55.7451 19.836 55.8969 20.1511L56.0554 20.0751C55.9026 19.7591 55.7422 19.4393 55.578 19.1289Z" fill="#CCCCCC"/>
<path d="M54.9282 44.5338L55.0801 44.622C55.2576 44.3155 55.4312 44.0032 55.5935 43.691L55.4379 43.6094C55.2756 43.9178 55.1038 44.2282 54.9282 44.5338Z" fill="#CCCCCC"/>
<path d="M51.9581 13.9102L51.8262 14.0278C52.0587 14.2898 52.2894 14.5593 52.5106 14.8298L52.6462 14.7178C52.4231 14.4454 52.1925 14.174 51.9581 13.9102Z" fill="#CCCCCC"/>
<path d="M53.1818 47.1758C52.9711 47.4548 52.7519 47.7348 52.5298 48.0062L52.6655 48.1173C52.8895 47.8449 53.1097 47.563 53.3213 47.2821L53.1818 47.1758Z" fill="#CCCCCC"/>
<path d="M50.3809 50.3281C50.1284 50.5701 49.8674 50.8112 49.6055 51.0437L49.7222 51.1747C49.986 50.9412 50.248 50.7002 50.5024 50.4553L50.3809 50.3281Z" fill="#CCCCCC"/>
<path d="M50.4833 12.3789L50.3618 12.5061C50.6143 12.7481 50.8658 12.9987 51.1087 13.2511L51.235 13.1287C50.9901 12.8743 50.7377 12.6228 50.4833 12.3789Z" fill="#CCCCCC"/>
<path d="M55.9126 42.6625L56.0711 42.7385C56.2229 42.4196 56.3691 42.0931 56.5077 41.7685L56.3463 41.6992C56.2097 42.0219 56.0635 42.3455 55.9126 42.6625Z" fill="#CCCCCC"/>
<path d="M51.1274 49.5849L51.2547 49.7064C51.4986 49.453 51.7406 49.1901 51.975 48.9263L51.8431 48.8086C51.6105 49.0715 51.3695 49.3325 51.1274 49.5849Z" fill="#CCCCCC"/>
<path d="M58.1034 35.6328C58.0474 35.9792 57.9838 36.3285 57.9136 36.6702L58.0854 36.7053C58.1556 36.3608 58.2201 36.0087 58.2752 35.6613L58.1034 35.6328Z" fill="#CCCCCC"/>
<path d="M58.3554 33.5391C58.3279 33.8874 58.2927 34.2405 58.251 34.5888L58.4256 34.6097C58.4674 34.2595 58.5034 33.9036 58.5319 33.5534L58.3554 33.5391Z" fill="#CCCCCC"/>
<path d="M58.4388 31.3672V31.426C58.4388 31.7762 58.4322 32.1303 58.418 32.4814L58.5936 32.4881C58.6078 32.135 58.6143 31.7781 58.6143 31.4251V31.3672H58.4388Z" fill="#CCCCCC"/>
<path d="M57.8408 25.0625L57.6699 25.1052C57.7544 25.444 57.8321 25.7904 57.9033 26.134L58.0752 26.0989C58.004 25.7525 57.9252 25.4042 57.8408 25.0625Z" fill="#CCCCCC"/>
<path d="M56.7432 40.7192L56.9074 40.7818C57.0326 40.4506 57.1533 40.1175 57.2653 39.7787L57.0981 39.7227C56.9871 40.0548 56.8675 40.3899 56.7432 40.7192Z" fill="#CCCCCC"/>
<path d="M56.4891 21.0391L56.3276 21.1083C56.4653 21.4282 56.5982 21.7566 56.7235 22.0831L56.8867 22.0204C56.7605 21.6911 56.6267 21.3618 56.4891 21.0391Z" fill="#CCCCCC"/>
<path d="M57.2437 23.0234L57.0767 23.0793C57.1887 23.4115 57.294 23.7504 57.3927 24.0864L57.5616 24.0371C57.4658 23.6992 57.3585 23.3613 57.2437 23.0234Z" fill="#CCCCCC"/>
<path d="M57.6835 37.6992C57.6 38.0399 57.5079 38.3825 57.4111 38.7184L57.5801 38.7669C57.675 38.4291 57.7699 38.0845 57.8544 37.7409L57.6835 37.6992Z" fill="#CCCCCC"/>
<path d="M31.1399 5.2501C31.4892 5.23586 31.8442 5.22826 32.1944 5.22636V5.05078C31.8414 5.05078 31.4844 5.05837 31.1323 5.07356L31.1399 5.2501Z" fill="#CCCCCC"/>
<path d="M35.3516 5.41196C35.6989 5.45277 36.0511 5.50213 36.3956 5.55717L36.4231 5.38443C36.0748 5.32843 35.7217 5.27909 35.3715 5.23828L35.3516 5.41196Z" fill="#CCCCCC"/>
<path d="M39.4844 6.2441C39.8213 6.33901 40.1601 6.44531 40.4923 6.5554L40.5473 6.38836C40.2133 6.27731 39.8716 6.17197 39.5328 6.07422L39.4844 6.2441Z" fill="#CCCCCC"/>
<path d="M38.5225 56.8739L38.5642 57.0447C38.9068 56.9602 39.2523 56.8682 39.5902 56.7704L39.5408 56.6016C39.2039 56.6984 38.8632 56.7904 38.5225 56.8739Z" fill="#CCCCCC"/>
<path d="M35.4096 57.4375C35.0622 57.4793 34.7091 57.5153 34.3599 57.5428L34.3741 57.7184C34.7253 57.69 35.0802 57.6548 35.4304 57.6121L35.4096 57.4375Z" fill="#CCCCCC"/>
<path d="M37.4351 5.74304C37.7786 5.81232 38.125 5.8892 38.4648 5.97178L38.5066 5.80094C38.1649 5.71647 37.8156 5.6396 37.4702 5.57031L37.4351 5.74304Z" fill="#CCCCCC"/>
<path d="M36.4546 57.2934L36.4831 57.4671C36.8304 57.4111 37.1816 57.3474 37.5271 57.2772L37.4918 57.1055C37.1483 57.1738 36.7991 57.2374 36.4546 57.2934Z" fill="#CCCCCC"/>
<path d="M30.1309 57.7225C30.483 57.75 30.8389 57.7709 31.191 57.7851L31.1976 57.6086C30.8484 57.5953 30.4944 57.5744 30.1451 57.5469L30.1309 57.7225Z" fill="#CCCCCC"/>
<path d="M48.8923 10.9727L48.7812 11.1093C49.0527 11.3305 49.3233 11.5601 49.5862 11.7927L49.7028 11.6607C49.4371 11.4225 49.1637 11.1947 48.8923 10.9727Z" fill="#CCCCCC"/>
<path d="M33.2485 5.24684C33.5987 5.26013 33.9528 5.28101 34.302 5.30758L34.3163 5.132C33.9651 5.10448 33.6082 5.0836 33.2561 5.07031L33.2485 5.24684Z" fill="#CCCCCC"/>
<path d="M32.252 57.6303V57.8058C32.6041 57.8058 32.9609 57.7982 33.314 57.785L33.3073 57.6094C32.9562 57.6236 32.6012 57.6303 32.252 57.6303Z" fill="#CCCCCC"/>
<path d="M46.2412 53.571L46.3361 53.7192C46.6332 53.5294 46.9302 53.3337 47.2207 53.1325L47.121 52.9883C46.8315 53.1914 46.5354 53.3888 46.2412 53.571Z" fill="#CCCCCC"/>
<path d="M40.5474 56.2837L40.6033 56.4507C40.9373 56.3397 41.2744 56.2192 41.6037 56.0939L41.5411 55.9297C41.2136 56.0531 40.8795 56.1727 40.5474 56.2837Z" fill="#CCCCCC"/>
<path d="M48.8036 51.7305C48.5322 51.9526 48.2522 52.1718 47.9741 52.3806L48.0795 52.5211C48.3642 52.3104 48.6413 52.0902 48.9147 51.8662L48.8036 51.7305Z" fill="#CCCCCC"/>
<path d="M45.3949 8.55859L45.3066 8.71046C45.6103 8.88509 45.9141 9.0692 46.2111 9.25617L46.306 9.10717C46.0061 8.91926 45.6977 8.73417 45.3949 8.55859Z" fill="#CCCCCC"/>
<path d="M47.1924 9.69922L47.0928 9.84433C47.3775 10.0427 47.6689 10.2506 47.947 10.4613L48.0523 10.3208C47.7723 10.1082 47.4828 9.89938 47.1924 9.69922Z" fill="#CCCCCC"/>
<path d="M41.5524 6.74219L41.4907 6.90638C41.8191 7.02976 42.1494 7.16264 42.4721 7.30026L42.5404 7.13797C42.2168 7.00035 41.8817 6.86652 41.5524 6.74219Z" fill="#CCCCCC"/>
<path d="M42.5181 55.5343L42.5873 55.6957C42.911 55.5571 43.2365 55.411 43.5535 55.2601L43.4776 55.1016C43.1625 55.2515 42.8398 55.3967 42.5181 55.5343Z" fill="#CCCCCC"/>
<path d="M43.5149 7.57422L43.4399 7.73366C43.7569 7.88362 44.0749 8.04212 44.389 8.20821L44.4706 8.05256C44.1499 7.88457 43.83 7.72512 43.5149 7.57422Z" fill="#CCCCCC"/>
<path d="M44.418 54.6337L44.4996 54.7894C44.8118 54.6252 45.1231 54.4524 45.4268 54.2769L45.3386 54.125C45.0377 54.2996 44.7274 54.4705 44.418 54.6337Z" fill="#CCCCCC"/>
<path d="M27.7033 10.4074C27.6438 10.4066 27.5867 10.3832 27.5438 10.3419C27.5008 10.3007 27.475 10.2447 27.4717 10.1853V8.14007C27.4744 8.07788 27.5016 8.01927 27.5472 7.97698C27.5929 7.93469 27.6534 7.91213 27.7156 7.91419H36.7632C36.8244 7.91237 36.884 7.93459 36.929 7.9761C36.9741 8.0176 37.0012 8.07509 37.0043 8.13627V10.1825C37.0016 10.2444 36.9747 10.3026 36.9295 10.3449C36.8842 10.3871 36.8241 10.41 36.7623 10.4084H27.7033V10.4074ZM27.708 8.12107C27.7022 8.12129 27.6967 8.12365 27.6924 8.12767C27.6883 8.13169 27.6857 8.13712 27.6852 8.14291V10.1806C27.6866 10.1859 27.6896 10.1905 27.694 10.1938C27.6982 10.1971 27.7035 10.1988 27.709 10.1986H36.7632C36.7664 10.199 36.7698 10.1988 36.7729 10.1979C36.776 10.197 36.779 10.1955 36.7815 10.1935C36.7841 10.1914 36.7863 10.1889 36.7878 10.1861C36.7894 10.1832 36.7904 10.18 36.7907 10.1768V8.13913C36.7893 8.13394 36.7862 8.12937 36.7819 8.12611C36.7776 8.12286 36.7724 8.12108 36.767 8.12107H27.7099H27.708Z" fill="#CCCCCC"/>
<path d="M27.7033 6.4504C27.6438 6.44953 27.5867 6.42614 27.5438 6.38493C27.5008 6.34372 27.475 6.28775 27.4717 6.22831V4.18303C27.4744 4.12085 27.5016 4.06224 27.5472 4.01995C27.5929 3.97766 27.6534 3.9551 27.7156 3.95716H36.7632C36.8244 3.95534 36.884 3.97756 36.929 4.01907C36.9741 4.06057 37.0012 4.11806 37.0043 4.17924V6.22546C37.0018 6.2874 36.9751 6.34585 36.9297 6.38815C36.8844 6.43044 36.8242 6.45314 36.7623 6.45135H27.7033V6.4504Z" fill="#E5E5E5"/>
<path d="M27.7033 2.49335C27.6438 2.49248 27.5867 2.46908 27.5438 2.42787C27.5008 2.38666 27.475 2.3307 27.4717 2.27125V0.225975C27.4746 0.163876 27.5019 0.105426 27.5475 0.0631839C27.5931 0.0209416 27.6535 -0.00171034 27.7156 0.000100816H36.7632C36.8244 -0.00147594 36.8838 0.0208283 36.9288 0.062286C36.9738 0.103743 37.0009 0.16109 37.0043 0.222181V2.26746C37.0016 2.3293 36.9747 2.38761 36.9295 2.42986C36.8842 2.4721 36.8241 2.4949 36.7623 2.49335H27.7033Z" fill="#F1A00A"/>
<path d="M11.7241 24.3945H0.000976562V38.4619H11.7241V24.3945Z" fill="#E6E6E6"/>
<path d="M11.3477 24.8242H0.336426V38.0383H11.3477V24.8242Z" fill="white"/>
<path d="M5.65226 27.0391H1.24756V27.5895H5.65226V27.0391Z" fill="#E6E6E6"/>
<path d="M7.91393 28.9102H1.24756V29.4606H7.91393V28.9102Z" fill="#F1A00A"/>
<path d="M5.26219 30.7773H1.24756V31.3278H5.26219V30.7773Z" fill="#E6E6E6"/>
<path d="M9.62612 32.6562H1.24756V33.2067H9.62612V32.6562Z" fill="#F1A00A"/>
<path d="M9.62612 34.5273H1.24756V35.0778H9.62612V34.5273Z" fill="#E6E6E6"/>
<path d="M23.7236 52.75C23.6785 52.75 23.6353 52.7679 23.6034 52.7998C23.5716 52.8316 23.5537 52.8748 23.5537 52.9199V62.6955C23.5537 62.7405 23.5716 62.7837 23.6034 62.8156C23.6353 62.8474 23.6785 62.8653 23.7236 62.8653H43.0973C43.1423 62.8653 43.1855 62.8474 43.2173 62.8156C43.2492 62.7837 43.2671 62.7405 43.2671 62.6955V52.9199C43.2671 52.8748 43.2492 52.8316 43.2173 52.7998C43.1855 52.7679 43.1423 52.75 43.0973 52.75H23.7236Z" fill="#E6E6E6"/>
<path d="M23.9951 53.0195C23.9501 53.0195 23.9068 53.0374 23.8749 53.0693C23.8431 53.1012 23.8252 53.1443 23.8252 53.1893V62.4183C23.8252 62.4634 23.8431 62.5066 23.8749 62.5384C23.9068 62.5703 23.9501 62.5882 23.9951 62.5882H42.8259C42.8709 62.5882 42.9141 62.5703 42.946 62.5384C42.9779 62.5066 42.9958 62.4634 42.9958 62.4183V53.1893C42.9958 53.1443 42.9779 53.1012 42.946 53.0693C42.9141 53.0374 42.8709 53.0195 42.8259 53.0195H23.9951Z" fill="white"/>
<path d="M29.6443 58.9583H25.6411C25.5783 58.9581 25.518 58.933 25.4736 58.8886C25.4291 58.8441 25.4041 58.7839 25.4038 58.7211V54.7177C25.4041 54.6549 25.4291 54.5947 25.4736 54.5503C25.518 54.5059 25.5783 54.4808 25.6411 54.4805H29.6443C29.7071 54.4808 29.7674 54.5059 29.8118 54.5503C29.8562 54.5947 29.8814 54.6549 29.8816 54.7177V58.7211C29.8814 58.7839 29.8562 58.8441 29.8118 58.8886C29.7674 58.933 29.7071 58.9581 29.6443 58.9583ZM25.6411 54.5479C25.596 54.5479 25.5528 54.5658 25.5209 54.5977C25.4891 54.6295 25.4712 54.6728 25.4712 54.7177V58.7211C25.4712 58.7661 25.4891 58.8093 25.5209 58.8411C25.5528 58.873 25.596 58.891 25.6411 58.891H29.6443C29.6894 58.891 29.7326 58.873 29.7645 58.8411C29.7963 58.8093 29.8142 58.7661 29.8142 58.7211V54.7169C29.8142 54.6718 29.7963 54.6285 29.7645 54.5967C29.7326 54.5648 29.6894 54.547 29.6443 54.547L25.6411 54.5479Z" fill="#0F4989"/>
<path d="M35.4129 58.9583H31.4096C31.3468 58.9581 31.2866 58.933 31.2421 58.8886C31.1977 58.8441 31.1726 58.7839 31.1724 58.7211V54.7177C31.1726 54.6549 31.1977 54.5947 31.2421 54.5503C31.2866 54.5059 31.3468 54.4808 31.4096 54.4805H35.4129C35.4758 54.4808 35.536 54.5059 35.5804 54.5503C35.6249 54.5947 35.65 54.6549 35.6501 54.7177V58.7211C35.65 58.7839 35.6249 58.8441 35.5804 58.8886C35.536 58.933 35.4758 58.9581 35.4129 58.9583ZM31.4096 54.5479C31.3646 54.5479 31.3214 54.5658 31.2896 54.5977C31.2577 54.6295 31.2397 54.6728 31.2397 54.7177V58.7211C31.2397 58.7661 31.2577 58.8093 31.2896 58.8411C31.3214 58.873 31.3646 58.891 31.4096 58.891H35.4129C35.458 58.891 35.5011 58.873 35.533 58.8411C35.5649 58.8093 35.5828 58.7661 35.5828 58.7211V54.7169C35.5828 54.6718 35.5649 54.6285 35.533 54.5967C35.5011 54.5648 35.458 54.547 35.4129 54.547L31.4096 54.5479Z" fill="#E6E6E6"/>
<path d="M31.7138 54.8516C31.6687 54.8516 31.6256 54.8695 31.5937 54.9014C31.5619 54.9332 31.5439 54.9765 31.5439 55.0214V58.4145C31.5439 58.4595 31.5619 58.5027 31.5937 58.5346C31.6256 58.5664 31.6687 58.5843 31.7138 58.5843H35.1078C35.1528 58.5843 35.196 58.5664 35.2279 58.5346C35.2598 58.5027 35.2776 58.4595 35.2776 58.4145V55.0224C35.2776 54.9775 35.2599 54.9344 35.2282 54.9026C35.1966 54.8708 35.1536 54.8528 35.1087 54.8525L31.7138 54.8516Z" fill="#E6E6E6"/>
<path d="M25.9658 54.8516C25.9207 54.8516 25.8775 54.8695 25.8456 54.9014C25.8137 54.9332 25.7959 54.9765 25.7959 55.0214V58.4145C25.7959 58.4595 25.8137 58.5027 25.8456 58.5346C25.8775 58.5664 25.9207 58.5843 25.9658 58.5843H29.3588C29.4038 58.5843 29.447 58.5664 29.4789 58.5346C29.5107 58.5027 29.5286 58.4595 29.5286 58.4145V55.0224C29.5286 54.9773 29.5107 54.9341 29.4789 54.9022C29.447 54.8705 29.4038 54.8525 29.3588 54.8525L25.9658 54.8516Z" fill="#0F4989"/>
<path d="M37.4643 54.8516C37.4193 54.8516 37.3761 54.8695 37.3443 54.9014C37.3124 54.9332 37.2944 54.9765 37.2944 55.0214V58.4145C37.2944 58.4594 37.3122 58.5024 37.3439 58.5343C37.3755 58.5661 37.4185 58.584 37.4634 58.5843H40.8563C40.9014 58.5843 40.9446 58.5664 40.9765 58.5346C41.0084 58.5027 41.0262 58.4595 41.0262 58.4145V55.0214C41.0262 54.9765 41.0084 54.9332 40.9765 54.9014C40.9446 54.8695 40.9014 54.8516 40.8563 54.8516H37.4643Z" fill="#F1A00A"/>
<path d="M41.18 58.9583H37.1767C37.1139 58.9581 37.0536 58.933 37.0092 58.8886C36.9648 58.8441 36.9397 58.7839 36.9395 58.7211V54.7177C36.9397 54.6549 36.9648 54.5947 37.0092 54.5503C37.0536 54.5059 37.1139 54.4808 37.1767 54.4805H41.18C41.2428 54.4808 41.3031 54.5059 41.3475 54.5503C41.3919 54.5947 41.417 54.6549 41.4172 54.7177V58.7211C41.417 58.7841 41.3918 58.8444 41.3471 58.8889C41.3025 58.9333 41.242 58.9583 41.179 58.9583H41.18ZM37.1767 54.5479C37.1316 54.5479 37.0885 54.5658 37.0566 54.5977C37.0248 54.6295 37.0068 54.6728 37.0068 54.7177V58.7211C37.0068 58.7661 37.0248 58.8093 37.0566 58.8411C37.0885 58.873 37.1316 58.891 37.1767 58.891H41.18C41.225 58.891 41.2682 58.873 41.3001 58.8411C41.3319 58.8093 41.3499 58.7661 41.3499 58.7211V54.7169C41.3499 54.6718 41.3319 54.6285 41.3001 54.5967C41.2682 54.5648 41.225 54.547 41.18 54.547L37.1767 54.5479Z" fill="#F1A00A"/>
<path opacity="0.8" d="M31.7997 60.826C32.1184 60.826 32.3767 60.5676 32.3767 60.2489C32.3767 59.9302 32.1184 59.6719 31.7997 59.6719C31.481 59.6719 31.2227 59.9302 31.2227 60.2489C31.2227 60.5676 31.481 60.826 31.7997 60.826Z" fill="#E6E6E6"/>
<path opacity="0.4" d="M35.0556 60.826C35.3743 60.826 35.6326 60.5676 35.6326 60.2489C35.6326 59.9302 35.3743 59.6719 35.0556 59.6719C34.7369 59.6719 34.4785 59.9302 34.4785 60.2489C34.4785 60.5676 34.7369 60.826 35.0556 60.826Z" fill="#E6E6E6"/>
<path opacity="0.6" d="M33.4271 60.826C33.7458 60.826 34.0042 60.5676 34.0042 60.2489C34.0042 59.9302 33.7458 59.6719 33.4271 59.6719C33.1084 59.6719 32.8501 59.9302 32.8501 60.2489C32.8501 60.5676 33.1084 60.826 33.4271 60.826Z" fill="#E6E6E6"/>
<path opacity="0.8" d="M26.0307 60.826C26.3494 60.826 26.6077 60.5676 26.6077 60.2489C26.6077 59.9302 26.3494 59.6719 26.0307 59.6719C25.712 59.6719 25.4536 59.9302 25.4536 60.2489C25.4536 60.5676 25.712 60.826 26.0307 60.826Z" fill="#0F4989"/>
<path opacity="0.4" d="M29.288 60.826C29.6067 60.826 29.865 60.5676 29.865 60.2489C29.865 59.9302 29.6067 59.6719 29.288 59.6719C28.9693 59.6719 28.7109 59.9302 28.7109 60.2489C28.7109 60.5676 28.9693 60.826 29.288 60.826Z" fill="#3F3D56"/>
<path opacity="0.6" d="M27.6591 60.826C27.9777 60.826 28.2361 60.5676 28.2361 60.2489C28.2361 59.9302 27.9777 59.6719 27.6591 59.6719C27.3404 59.6719 27.082 59.9302 27.082 60.2489C27.082 60.5676 27.3404 60.826 27.6591 60.826Z" fill="#404E5E"/>
<path opacity="0.8" d="M37.5673 60.826C37.886 60.826 38.1443 60.5676 38.1443 60.2489C38.1443 59.9302 37.886 59.6719 37.5673 59.6719C37.2486 59.6719 36.9902 59.9302 36.9902 60.2489C36.9902 60.5676 37.2486 60.826 37.5673 60.826Z" fill="#F1A00A"/>
<path opacity="0.4" d="M40.8241 60.826C41.1428 60.826 41.4012 60.5676 41.4012 60.2489C41.4012 59.9302 41.1428 59.6719 40.8241 59.6719C40.5055 59.6719 40.2471 59.9302 40.2471 60.2489C40.2471 60.5676 40.5055 60.826 40.8241 60.826Z" fill="#F1A00A"/>
<path opacity="0.6" d="M39.1957 60.826C39.5144 60.826 39.7727 60.5676 39.7727 60.2489C39.7727 59.9302 39.5144 59.6719 39.1957 59.6719C38.877 59.6719 38.6187 59.9302 38.6187 60.2489C38.6187 60.5676 38.877 60.826 39.1957 60.826Z" fill="#F1A00A"/>
<path d="M58.6144 34.3615C60.233 34.3615 61.5451 33.0493 61.5451 31.4308C61.5451 29.8121 60.233 28.5 58.6144 28.5C56.9957 28.5 55.6836 29.8121 55.6836 31.4308C55.6836 33.0493 56.9957 34.3615 58.6144 34.3615Z" fill="#F1A00A"/>
<path d="M59.5354 31.1753H58.8663V30.5053C58.8684 30.471 58.8635 30.4366 58.8519 30.4044C58.8402 30.3721 58.822 30.3425 58.7985 30.3175C58.775 30.2925 58.7466 30.2725 58.7151 30.259C58.6835 30.2453 58.6497 30.2383 58.6153 30.2383C58.581 30.2383 58.547 30.2453 58.5155 30.259C58.484 30.2725 58.4556 30.2925 58.432 30.3175C58.4085 30.3425 58.3905 30.3721 58.3788 30.4044C58.3671 30.4366 58.3622 30.471 58.3643 30.5053V31.1753H57.6942C57.66 31.1732 57.6256 31.1782 57.5933 31.1898C57.5611 31.2014 57.5316 31.2196 57.5065 31.2431C57.4815 31.2666 57.4616 31.295 57.4479 31.3265C57.4343 31.358 57.4272 31.392 57.4272 31.4263C57.4272 31.4607 57.4343 31.4947 57.4479 31.5262C57.4616 31.5577 57.4815 31.5861 57.5065 31.6096C57.5316 31.6331 57.5611 31.6512 57.5933 31.6629C57.6256 31.6745 57.66 31.6795 57.6942 31.6774H58.3643V32.3474C58.3683 32.4114 58.3964 32.4714 58.443 32.5152C58.4896 32.5591 58.5512 32.5835 58.6153 32.5835C58.6793 32.5835 58.741 32.5591 58.7877 32.5152C58.8343 32.4714 58.8625 32.4114 58.8663 32.3474V31.6774H59.5364C59.5707 31.6795 59.605 31.6745 59.6373 31.6629C59.6696 31.6512 59.6992 31.6331 59.7241 31.6096C59.7492 31.5861 59.7691 31.5577 59.7827 31.5262C59.7964 31.4947 59.8034 31.4607 59.8034 31.4263C59.8034 31.392 59.7964 31.358 59.7827 31.3265C59.7691 31.295 59.7492 31.2666 59.7241 31.2431C59.6992 31.2196 59.6696 31.2014 59.6373 31.1898C59.605 31.1782 59.5707 31.1732 59.5364 31.1753H59.5354Z" fill="white"/>
<path d="M109.021 86.3284H0.146643C0.107754 86.3284 0.0704523 86.313 0.0429533 86.2854C0.0154541 86.2579 0 86.2206 0 86.1818C0 86.1429 0.0154541 86.1056 0.0429533 86.0781C0.0704523 86.0505 0.107754 86.0352 0.146643 86.0352H109.021C109.06 86.0352 109.098 86.0505 109.126 86.0781C109.153 86.1056 109.168 86.1429 109.168 86.1818C109.168 86.2206 109.153 86.2579 109.126 86.2854C109.098 86.313 109.06 86.3284 109.021 86.3284Z" fill="#E6E6E6"/>
<path d="M91.1618 53.6902C91.3078 53.5121 91.4129 53.3041 91.4698 53.081C91.5266 52.8579 91.5339 52.6249 91.491 52.3988C91.4481 52.1725 91.3561 51.9585 91.2215 51.7716C91.0869 51.5848 90.913 51.4298 90.7119 51.3175L87.3066 37.3906L84.8237 38.1831L88.4986 52.016C88.3339 52.3655 88.3028 52.7631 88.411 53.1339C88.5193 53.5048 88.7595 53.8233 89.0865 54.0292C89.4133 54.2351 89.8042 54.3143 90.1855 54.2519C90.5667 54.1894 90.912 53.9896 91.1561 53.6902H91.1618Z" fill="#FEB8B8"/>
<path d="M89.4039 44.7759L87.5901 46.3409L85.0522 48.5238L83.9315 42.7886L83.8146 42.1925L83.7197 41.718L86.2918 37.2383L88.4357 37.3617L88.5819 37.3702V37.4025L88.6161 37.7024L89.0555 41.6563L89.0659 41.7512L89.4039 44.7759Z" fill="#0F4989"/>
<path d="M77.5458 84.2955H75.7492L74.895 77.3672H77.5458V84.2955Z" fill="#FEB8B8"/>
<path d="M78.0081 83.707H74.4698C73.8719 83.707 73.2985 83.9445 72.8756 84.3671C72.4527 84.7898 72.215 85.3632 72.2148 85.9611V86.0342H78.0042L78.0081 83.707Z" fill="#2F2E41"/>
<path d="M96.3033 84.1471H94.5065L93.6523 77.2188H96.3033V84.1471Z" fill="#FEB8B8"/>
<path d="M96.7638 83.5586H93.2252C92.6273 83.5586 92.0539 83.7961 91.631 84.2187C91.2081 84.6414 90.9705 85.2147 90.9702 85.8127V85.8858H96.76L96.7638 83.5586Z" fill="#2F2E41"/>
<path d="M97.7386 81.0956L92.8981 81.8283L85.8625 58.0195L78.3904 81.9754L72.9683 81.2427L80.0019 53.4013V51.2032L80.951 47.9061L80.8561 47.014L80.1633 40.7728L79.8625 38.066L79.8425 37.8913C79.8261 37.7445 79.865 37.597 79.9514 37.4774C80.0379 37.3577 80.1659 37.2745 80.3104 37.2441L82.5673 36.7695H86.2554L88.4317 37.3694L88.5807 37.4102L88.6481 37.4291L88.6139 37.7139L88.1043 41.9895L88.0767 42.2239L87.5842 46.3458L87.476 47.2503C91.726 50.3272 91.8721 53.4051 91.8721 53.4051L97.7386 81.0956Z" fill="#0F4989"/>
<path d="M83.971 34.9127C85.9587 34.9127 87.5699 33.3014 87.5699 31.3138C87.5699 29.3262 85.9587 27.7148 83.971 27.7148C81.9833 27.7148 80.3721 29.3262 80.3721 31.3138C80.3721 33.3014 81.9833 34.9127 83.971 34.9127Z" fill="#FEB8B8"/>
<path d="M87.7506 46.418L80.6313 47.349L80.7644 48.3662L87.8836 47.4352L87.7506 46.418Z" fill="#CBCBCB"/>
<path d="M71.0816 47.6561C71.1487 47.7001 71.2122 47.7493 71.2715 47.8032L78.3137 46.0076L78.7939 44.3086L81.4513 44.6988L80.8933 47.789C80.8483 48.0386 80.7234 48.2669 80.5376 48.4396C80.3517 48.6123 80.1149 48.7199 79.8626 48.7465L71.6407 49.6122C71.5067 49.8943 71.29 50.1291 71.0193 50.2852C70.7486 50.4413 70.4368 50.5112 70.1254 50.4857C69.8141 50.4603 69.5178 50.3406 69.276 50.1427C69.0344 49.9447 68.8587 49.6778 68.7723 49.3776C68.686 49.0774 68.6931 48.7579 68.7927 48.4618C68.8923 48.1657 69.0797 47.9069 69.33 47.7199C69.5803 47.5329 69.8816 47.4265 70.1939 47.4149C70.5061 47.4034 70.8144 47.4872 71.0779 47.6551L71.0816 47.6561Z" fill="#FEB8B8"/>
<path d="M81.9126 38.159L80.6675 37.2099C80.3306 37.0818 79.8692 37.4453 79.7885 37.7964L78.0337 44.9734L81.6972 47.6109L82.2098 46.8051L81.9126 38.159Z" fill="#0F4989"/>
<path d="M80.8792 30.4518L81.0747 30.1367C81.562 30.0398 82.0675 30.0974 82.5204 30.3016C82.9733 30.5057 83.3511 30.8463 83.6012 31.2756C83.7246 30.8201 84.4554 30.8438 84.7306 31.2291C84.8403 31.4381 84.9076 31.6665 84.9289 31.9016C84.95 32.1366 84.9246 32.3735 84.854 32.5986C84.7108 33.0515 84.7197 33.5389 84.8796 33.9862C84.9938 34.1825 85.158 34.345 85.3554 34.4571C85.5527 34.5693 85.7763 34.6273 86.0033 34.6249C86.4589 34.614 86.9017 34.4731 87.2799 34.2187C87.9758 33.7766 88.5324 33.1465 88.885 32.4012C89.2378 31.656 89.3723 30.8261 89.2729 30.0076C89.1814 29.3702 88.9447 28.7624 88.5811 28.231C88.7893 28.2155 88.9838 28.1211 89.1249 27.9671C89.2225 27.8397 89.2831 27.6879 89.2999 27.5283C89.3166 27.3686 89.2889 27.2075 89.2198 27.0626C89.0991 26.8094 88.9155 26.5915 88.6864 26.4296C88.8525 26.5618 89.0477 26.6522 89.2559 26.6934C89.3796 26.7196 89.5086 26.6995 89.6185 26.6369C89.7283 26.5742 89.8114 26.4734 89.8519 26.3537C89.8955 26.1211 89.7095 25.9085 89.5368 25.7387L89.2008 25.4065C89.2588 25.3409 89.3127 25.2719 89.3622 25.1996C89.5491 24.9383 89.6566 24.6285 89.6716 24.3076C89.6866 23.9866 89.6084 23.6682 89.4466 23.3906C89.5764 23.6809 89.5946 24.0087 89.4978 24.3114C89.401 24.6142 89.1959 24.8706 88.9218 25.0316C88.9037 25.0458 88.8829 25.0582 88.8648 25.0724L88.6513 24.8608C88.4839 24.6708 88.2791 24.5178 88.0496 24.4109C87.9346 24.3592 87.8066 24.3437 87.6827 24.3667C87.5587 24.3895 87.4446 24.4496 87.3558 24.539C87.1906 24.745 87.2371 25.0734 87.0435 25.2546C86.9459 25.3211 86.833 25.3619 86.7154 25.3733C86.5978 25.3847 86.4793 25.3664 86.3706 25.3201C86.1523 25.2253 85.914 25.1859 85.6769 25.2053C85.5221 25.2511 85.3897 25.3529 85.3056 25.4907C85.2214 25.6285 85.1914 25.7926 85.2213 25.9513C85.2468 26.0894 85.3047 26.2195 85.3902 26.3309C84.7534 26.2769 84.1131 26.275 83.4759 26.3252C82.723 26.3262 81.976 26.4569 81.2674 26.7115C80.9145 26.8424 80.5993 27.0581 80.3492 27.3394C80.0992 27.6207 79.9221 27.9591 79.8333 28.3249C79.6976 29.0614 80.1304 30.3863 80.8792 30.4518Z" fill="#2F2E41"/>
<path d="M8.0247 82.1634C8.32865 82.2703 8.65502 82.2972 8.97237 82.2414C9.28971 82.1855 9.58736 82.0488 9.83649 81.8445C10.4081 81.2361 10.7587 80.4533 10.8321 79.6218L11.3066 77.2188L10.3044 77.9087C9.55366 78.3624 8.89077 78.9475 8.34739 79.6361C8.08006 79.9841 7.90992 80.397 7.85439 80.8324C7.79886 81.2677 7.85993 81.71 8.03133 82.114" fill="#F1A00A"/>
<path d="M8.17884 85.2372C8.01612 84.3204 7.96006 83.388 8.01181 82.4582C8.06929 81.6297 8.36163 80.8346 8.8546 80.1662C9.12674 79.8161 9.45787 79.5161 9.83308 79.2798C9.92799 79.2181 10.0229 79.3747 9.92799 79.4345C9.27877 79.8447 8.77658 80.4506 8.49393 81.1646C8.20914 81.9662 8.10386 82.8206 8.1855 83.6674C8.21777 84.177 8.28704 84.6838 8.35633 85.1859C8.36128 85.2088 8.35761 85.2327 8.34605 85.253C8.33449 85.2733 8.31585 85.2886 8.29368 85.296C8.27064 85.3025 8.24601 85.3001 8.22472 85.2892C8.20342 85.2783 8.18704 85.2597 8.17884 85.2372Z" fill="#F1A00A"/>
<path d="M9.08789 83.7629C9.21829 83.9611 9.39753 84.1222 9.60827 84.2309C9.81907 84.3397 10.0543 84.3922 10.2913 84.3836C10.8969 84.2831 11.4514 83.9823 11.8659 83.5295L13.2183 82.3356L12.3233 82.2928C11.6812 82.2235 11.0317 82.2704 10.4062 82.4313C10.0943 82.5161 9.81043 82.6821 9.58369 82.9123C9.35692 83.1426 9.19532 83.4289 9.1154 83.7421" fill="#F1A00A"/>
<path d="M7.82237 85.7659C8.42979 84.6906 9.13403 83.4967 10.3935 83.1152C10.7434 83.0093 11.1103 82.9712 11.4745 83.0031C11.5893 83.0126 11.5609 83.193 11.446 83.1797C10.8355 83.1291 10.2262 83.2903 9.72059 83.6363C9.24507 83.9812 8.84199 84.4162 8.53419 84.9166C8.33773 85.2155 8.16215 85.5278 7.98562 85.8391C7.92962 85.9387 7.76543 85.8674 7.82237 85.7659Z" fill="#F1A00A"/>
</svg>
