<svg xmlns="http://www.w3.org/2000/svg" width="40" height="36.552" viewBox="0 0 40 36.552">
  <g id="Group_8849" data-name="Group 8849" transform="translate(-3926.5 -285.225)">
    <rect id="Rectangle_2912" data-name="Rectangle 2912" width="40" height="36.552" rx="3" transform="translate(3926.5 285.225)" fill="#eef6ff"/>
    <g id="investor" transform="translate(3936 291)">
      <path id="Path_8206" data-name="Path 8206" d="M275.908,271a5.884,5.884,0,1,0,5.908,5.859A5.9,5.9,0,0,0,275.908,271Zm1.227,8.5a2.759,2.759,0,0,1-.5.189v.2a.732.732,0,0,1-1.465,0v-.179a2.328,2.328,0,0,1-.83-.386.732.732,0,1,1,.879-1.172,1.322,1.322,0,0,0,1.256.036c.161-.08.247-.177.247-.227,0-.088,0-.1-.1-.153a3.478,3.478,0,0,0-.856-.225,4.4,4.4,0,0,1-1.278-.373,1.559,1.559,0,0,1-.873-1.446,1.729,1.729,0,0,1,1.056-1.538,2.755,2.755,0,0,1,.5-.19v-.2a.732.732,0,0,1,1.465,0v.179a2.329,2.329,0,0,1,.83.387.732.732,0,0,1-.879,1.172,1.323,1.323,0,0,0-1.257-.037c-.161.081-.246.176-.246.227,0,.088,0,.1.1.153a3.48,3.48,0,0,0,.856.225,4.4,4.4,0,0,1,1.278.373,1.559,1.559,0,0,1,.873,1.445A1.73,1.73,0,0,1,277.136,279.5Z" transform="translate(-256.816 -257.768)" fill="#f1a00a"/>
      <path id="Path_8207" data-name="Path 8207" d="M.732,308.324h2.93V301A3.666,3.666,0,0,0,0,304.662v2.93A.732.732,0,0,0,.732,308.324Z" transform="translate(0 -286.303)" fill="#0f4989"/>
      <path id="Path_8208" data-name="Path 8208" d="M195.732,301H195v7.324h2.818a7.124,7.124,0,0,1,.307-6.425A3.653,3.653,0,0,0,195.732,301Z" transform="translate(-185.479 -286.303)" fill="#0f4989"/>
      <path id="Path_8209" data-name="Path 8209" d="M105,391h2.93v2.93H105Z" transform="translate(-99.873 -371.908)" fill="#0f4989"/>
      <path id="Path_8210" data-name="Path 8210" d="M36.592,126.662a.732.732,0,0,1,.732-.732,2.93,2.93,0,0,0,2.93-2.93v-1.514h-.732a3.668,3.668,0,0,1-3.588-2.93h-5.2a3.662,3.662,0,0,1-.732-.074V123a2.93,2.93,0,0,0,2.93,2.93.732.732,0,0,1,.732.732v3.662h2.93Z" transform="translate(-28.535 -112.697)" fill="#0f4989"/>
      <path id="Path_8211" data-name="Path 8211" d="M2.2,4.395H8.057a.725.725,0,0,1,.732.732,2.194,2.194,0,0,0,2.2,2.2h.732v-2.2a3.665,3.665,0,0,0-3.032-3.6A2.213,2.213,0,0,0,6.592,0H.732A.725.725,0,0,0,0,.732V2.2A2.194,2.194,0,0,0,2.2,4.395Z" fill="#0f4989"/>
    </g>
  </g>
</svg>
