<svg xmlns="http://www.w3.org/2000/svg" width="111.025" height="77.702" viewBox="0 0 111.025 77.702"><defs><style>.a{fill:#ffb8b8;}.b{fill:#2f2e41;}.c{opacity:0.28;}.d{fill:#ccc;}.e{fill:#fff;}.f{fill:#3f3d56;}.g{fill:#e6e6e6;}.h{fill:#0f4989;}.i{fill:#f1a00a;}</style></defs><g transform="translate(0)"><path class="a" d="M725.171,527.049h-1.857l-.884-7.164h2.741Z" transform="translate(-627.125 -451.3)"/><path class="b" d="M886.593,727.5H880.6v-.076a2.331,2.331,0,0,1,2.331-2.331h3.658Z" transform="translate(-788.074 -649.953)"/><path class="a" d="M757.779,508.977l-1.206,1.413-6.024-3.978,1.78-2.085Z" transform="translate(-651.535 -437.794)"/><path class="b" d="M965.924,690.925l-3.888,4.556-.058-.049a2.331,2.331,0,0,1-.26-3.286h0l2.374-2.783Z" transform="translate(-858.003 -618.934)"/><path class="b" d="M639.431,228.757l-.578,5.332,23.373-.333-10.193-16.609-8.323-.3Z" transform="translate(-554.574 -188.241)"/><path class="c" d="M639.431,228.757l-.578,5.332,23.373-.333-10.193-16.609-8.323-.3Z" transform="translate(-554.574 -188.241)"/><path class="b" d="M851.85,462.627l-.825,4.879v4.361l6.653,2.172s-.779,16.939.259,18.018l-.025,2.6,2.9.132.024-1.833,1.231-13.7.725-10.059-1.175-7.627Z" transform="translate(-762.397 -421.196)"/><path class="b" d="M856.557,501.392l-5.979,5.04s-.35,9.094.539,10.16c.763.916,10.691,8.817,10.691,8.817s1.764,1.618,2.753,1.644,2.139-2.048,2.139-2.048l-2.29-1.74s-5.932-5.538-7.694-7.739a4.71,4.71,0,0,1-.711-.978l.243-3.7,2.444-6.859Z" transform="translate(-761.949 -455.761)"/><path class="b" d="M601.314,161.317l-2.578-.238-2.338.39-4.952,0-.422,3.589,4.519,1.011,1.1-.54,4.59,1.749Z" transform="translate(-513.055 -139.829)"/><path class="d" d="M859.034,317.416s5.471-.513,6.715.465,3.91,20.351,3.91,20.351l-10.626.6-1.9-1.311.541-9.672Z" transform="translate(-767.696 -295.939)"/><path class="b" d="M628.284,161.885l-6.035.132-5.627,25.426,4.444.978Z" transform="translate(-535.276 -140.529)"/><path class="b" d="M724.386,160.256l4.754,1.488-.27,10.447,5.869,12.49-6.9.727-5.453-13.486Z" transform="translate(-627.087 -139.115)"/><path class="a" d="M959.439,466.159a1.519,1.519,0,0,0-.057-2.328l.956-3.337-1.886-1.076-1.284,4.731a1.527,1.527,0,0,0,2.271,2.01Z" transform="translate(-854.3 -419.325)"/><path class="b" d="M931.905,327.628l2.813-.244s2.525,2.641,3.1,4.686a83.114,83.114,0,0,1,1.2,8.444l-.26,9.361-3.288-2.233-.221-8.051Z" transform="translate(-832.607 -304.709)"/><circle class="a" cx="3.988" cy="3.988" r="3.988" transform="translate(89.709 17.889) rotate(-61.337)"/><path class="b" d="M870.271,242.212a4.159,4.159,0,0,0-1.6.1,2.189,2.189,0,0,1-1.562-.18,2.47,2.47,0,0,1-.726-.927,1.068,1.068,0,0,1-.156-.409.952.952,0,0,1,.315-.682,5.16,5.16,0,0,1,3.173-1.526,5.482,5.482,0,0,1,2.9.354,3.79,3.79,0,0,1,2.032,2.039,5.794,5.794,0,0,1,.3,1.456,4.353,4.353,0,0,1,.02,1.1,4.726,4.726,0,0,1-.214.8l-.587,1.774a1.168,1.168,0,0,1-.231.457.4.4,0,0,1-.468.1,1.457,1.457,0,0,0,.021-.588.5.5,0,0,0-.392-.4c-.217-.023-.4.145-.607.217a.747.747,0,0,1-.928-.5c-.006-.019-.01-.038-.015-.057a2.764,2.764,0,0,0-.055-.61c-.09-.223-.329-.34-.508-.5a1.17,1.17,0,0,1-.321-1.216c.048-.148.184-.215.156-.384C870.788,242.411,870.46,242.255,870.271,242.212Z" transform="translate(-775.595 -227.574)"/><path class="e" d="M229.548,186.993H179.205V155.5h50.343Z" transform="translate(-179.205 -155.5)"/><path class="f" d="M229.548,186.993H179.205V155.5h50.343Zm-50.113-.23h49.883V155.73H179.435Z" transform="translate(-179.205 -155.5)"/><path class="e" d="M325.124,517.636H296.389V486.143h28.735Z" transform="translate(-280.93 -442.524)"/><path class="f" d="M325.124,517.636H296.389V486.143h28.735Zm-28.5-.23h28.275V486.373H296.619Z" transform="translate(-280.93 -442.524)"/><rect class="f" width="5.977" height="0.242" transform="translate(34.309 72.138)"/><rect class="f" width="5.977" height="0.242" transform="translate(34.309 72.865)"/><rect class="f" width="5.977" height="0.242" transform="translate(34.309 73.592)"/><path class="g" d="M405.3,528.835v2.529a7.586,7.586,0,0,1,5.364,12.95l1.788,1.788a10.115,10.115,0,0,0-7.152-17.267Z" transform="translate(-375.47 -479.584)"/><path class="h" d="M372.177,647.954l-1.788-1.788a7.584,7.584,0,0,1-9.954.675l-1.53,2.014A10.114,10.114,0,0,0,372.177,647.954Z" transform="translate(-335.198 -581.436)"/><path class="i" d="M331.15,538.95a7.586,7.586,0,0,1,7.586-7.586v-2.529A10.114,10.114,0,0,0,332.616,547l1.53-2.014A7.573,7.573,0,0,1,331.15,538.95Z" transform="translate(-308.909 -479.584)"/><path class="e" d="M647.49,369.522H618.755V338.029H647.49Z" transform="translate(-560.768 -313.949)"/><path class="f" d="M647.49,369.522H618.755V338.029H647.49Zm-28.5-.23H647.26V338.259H618.985Z" transform="translate(-560.768 -313.949)"/><rect class="h" width="5.172" height="8.276" transform="translate(62.125 43.332)"/><rect class="g" width="5.172" height="13.908" transform="translate(69.596 37.7)"/><rect class="i" width="5.172" height="20.459" transform="translate(77.067 31.148)"/><path class="f" d="M483.679,234.867H460.461V210.845h.23v23.792h22.988Z" transform="translate(-399.716 -183.03)"/><circle class="a" cx="1.583" cy="1.583" r="1.583" transform="translate(76.782 21.752)"/><path class="d" d="M856.6,742.764H831.932a.132.132,0,1,1,0-.264H856.6a.132.132,0,0,1,0,.264Z" transform="translate(-745.708 -665.062)"/><path class="f" d="M267.813,228.125h-36.36a.114.114,0,0,1-.114-.114V210.583a.114.114,0,1,1,.228,0V227.9h36.246a.114.114,0,0,1,0,.228Z" transform="translate(-224.462 -203.218)"/><path class="i" d="M267.105,300.367H263.8a.338.338,0,0,1-.338-.338V295.47a.338.338,0,0,1,.338-.338h3.307a.338.338,0,0,1,.338.338v4.559A.338.338,0,0,1,267.105,300.367Z" transform="translate(-252.345 -276.712)"/><path class="i" d="M312.82,271.914h-3.307a.338.338,0,0,1-.338-.338v-8.883a.338.338,0,0,1,.338-.338h3.307a.338.338,0,0,1,.338.338v8.883A.338.338,0,0,1,312.82,271.914Z" transform="translate(-292.029 -248.259)"/><path class="i" d="M358.536,300.367h-3.307a.338.338,0,0,1-.338-.338V295.47a.338.338,0,0,1,.338-.338h3.307a.338.338,0,0,1,.338.338v4.559A.338.338,0,0,1,358.536,300.367Z" transform="translate(-331.714 -276.712)"/><path class="i" d="M404.252,260.681h-3.307a.331.331,0,0,1-.338-.322v-10.62a.331.331,0,0,1,.338-.322h3.307a.331.331,0,0,1,.338.322v10.62A.331.331,0,0,1,404.252,260.681Z" transform="translate(-371.399 -237.026)"/><path class="i" d="M449.967,240.465H446.66a.338.338,0,0,1-.338-.338V226.465a.338.338,0,0,1,.338-.338h3.307a.338.338,0,0,1,.338.338v13.662A.338.338,0,0,1,449.967,240.465Z" transform="translate(-411.084 -216.81)"/><circle class="f" cx="0.683" cy="0.683" r="0.683" transform="translate(12.424 15.69)"/><circle class="f" cx="0.683" cy="0.683" r="0.683" transform="translate(18.455 11.252)"/><circle class="f" cx="0.683" cy="0.683" r="0.683" transform="translate(24.486 15.69)"/><circle class="f" cx="0.683" cy="0.683" r="0.683" transform="translate(30.517 9.09)"/><circle class="f" cx="0.683" cy="0.683" r="0.683" transform="translate(36.548 6.586)"/><path class="f" d="M110.977,64.146l-6.045-4.528-5.963,4.466-.136-.182,6.1-4.568,6.016,4.506,5.979-6.543.024-.01,6.031-2.43.085.211-6.007,2.42Z" transform="translate(-85.795 -47.621)"/></g></svg>