<svg xmlns="http://www.w3.org/2000/svg" width="96.578" height="193.686" viewBox="0 0 96.578 193.686">
  <g id="undraw_Confirmed_re_sef7" transform="translate(-8.331 0)">
    <path id="Path_10295" data-name="Path 10295" d="M366.6,197.555h1.064V168.4a16.873,16.873,0,0,1,16.873-16.873H446.3A16.873,16.873,0,0,1,463.178,168.4v159.94A16.873,16.873,0,0,1,446.3,345.214H384.538a16.873,16.873,0,0,1-16.873-16.873V218.307H366.6Z" transform="translate(-358.269 -151.527)" fill="#3f3d56"/>
    <path id="Path_10296" data-name="Path 10296" d="M390.006,161.715h8.063a5.987,5.987,0,0,0,5.543,8.248H439a5.987,5.987,0,0,0,5.543-8.248h7.53a12.6,12.6,0,0,1,12.6,12.6V334.021a12.6,12.6,0,0,1-12.6,12.6H390.006a12.6,12.6,0,0,1-12.6-12.6h0V174.316a12.6,12.6,0,0,1,12.6-12.6Z" transform="translate(-364.418 -157.325)" fill="#fff"/>
    <rect id="Rectangle_3308" data-name="Rectangle 3308" width="26.594" height="6.417" transform="translate(43.323 49.131)" fill="#f1a00a"/>
    <rect id="Rectangle_3309" data-name="Rectangle 3309" width="29.126" height="6.417" transform="translate(42.057 76.707)" fill="#e5e5e5"/>
    <rect id="Rectangle_3310" data-name="Rectangle 3310" width="65.007" height="6.417" transform="translate(24.116 90.492)" fill="#e5e5e5"/>
    <rect id="Rectangle_3311" data-name="Rectangle 3311" width="65.007" height="6.417" transform="translate(24.116 104.277)" fill="#e5e5e5"/>
    <circle id="Ellipse_721" data-name="Ellipse 721" cx="18.628" cy="18.628" r="18.628" transform="translate(38.024 128.82)" fill="#f1a00a"/>
    <path id="Path_10299" data-name="Path 10299" d="M119.988,339.675l-5.575-7.169,3.242-2.522,2.64,3.394,8.919-9.415,2.982,2.826Z" transform="translate(-65.111 -184.363)" fill="#fff"/>
  </g>
</svg>
