<svg xmlns="http://www.w3.org/2000/svg" width="112" height="57.462" viewBox="0 0 112 57.462">
  <g id="undraw_working_out_6psf" transform="translate(0 -3.654)">
    <path id="Path_10508" data-name="Path 10508" d="M945,655.608c0-3.336,1.693-6.04,3.781-6.04,1.312,0,2.468,1.069,3.146,2.691a1.9,1.9,0,0,1,.723-.145,2.265,2.265,0,0,1,1.693.872c.611-2.022,1.907-3.418,3.407-3.418,1.4,0,2.625,1.221,3.278,3.032a2.065,2.065,0,0,1,1.294-.487c1.6,0,2.9,2.075,2.9,4.635a6.756,6.756,0,0,1-.457,2.5h-19A8.593,8.593,0,0,1,945,655.608Z" transform="translate(-944.998 -598.314)" fill="#f1a00a"/>
    <path id="Path_10509" data-name="Path 10509" d="M129.085,209.329c2.977-6.441,8.8-11.935,15.843-12.831a10.718,10.718,0,0,1,5.531.592c2.267.963,3.937,2.906,5.626,4.7a67.832,67.832,0,0,0,11.922,10.043A17.5,17.5,0,0,0,175,214.941c5.107.729,10.158-2.754,12.487-7.357,1.455-2.875,2.127-6.251,3.3-9.242,1.355,0,2.968,0,4.7.006,4.8.022,8.705.093,8.705.093s-4.643-6.15-8.688-3.872c-1.293.728-2.646,1.378-3.891,1.925a10.887,10.887,0,0,1,2.825-3.567c2.419-1.939,5.694-2.483,8.791-2.339a17.038,17.038,0,0,1,9.176,2.924c4.707,3.387,6.651,9.349,8.315,14.9l-4.021,2.016c-1.725-1.491-4.247-2.966-6.572-1.657a55.232,55.232,0,0,1-8.691,3.792s3.875-.035,8.674-.013c.806,0,1.586.009,2.327.015L167.8,234.953c-14.726.207-25.829-.589-39.822,0-.73.031-2.371-3.795-2.377-4.8C125.56,223.056,126.108,215.77,129.085,209.329Zm14.3,1.93c4.8.022,8.705.093,8.705.093s-4.643-6.15-8.688-3.872a55.231,55.231,0,0,1-8.691,3.792s3.875-.035,8.674-.013Z" transform="translate(-115.531 -186.913)" fill="#f2f2f2"/>
    <path id="Path_10510" data-name="Path 10510" d="M819,555.11c0-2.425,1.5-4.392,3.354-4.392a3.241,3.241,0,0,1,2.791,1.956,2.007,2.007,0,0,1,.641-.105,2.184,2.184,0,0,1,1.5.634,3.415,3.415,0,0,1,3.022-2.485,3.323,3.323,0,0,1,2.908,2.2,2.085,2.085,0,0,1,1.148-.354c1.422,0,2.574,1.509,2.574,3.37a4.141,4.141,0,0,1-.406,1.815H819.676A5.309,5.309,0,0,1,819,555.11Z" transform="translate(-803.651 -509.715)" fill="#f1a00a" opacity="0.3"/>
    <path id="Path_10511" data-name="Path 10511" d="M82,587.444H185.5v-.207H82.1Z" transform="translate(-82 -526.338)" fill="#2f2e41"/>
    <path id="Path_10512" data-name="Path 10512" d="M0,463.444H103.5v-.207H.1Z" transform="translate(8.504 -415.198)" fill="#2f2e41"/>
    <path id="Path_10513" data-name="Path 10513" d="M485.851,404.474s-.652-4.78-1.738-3.476,0,3.259,0,3.259l.869,1.086.869-.652Z" transform="translate(-417.783 -375.319)" fill="#ffb8b8"/>
    <path id="Path_10514" data-name="Path 10514" d="M456.355,433.776s-2.173-2.39-2.607-1.955-1.738.652-1.521,1.521,4.78,3.694,4.78,3.694Z" transform="translate(-385.68 -403.1)" fill="#f1a00a"/>
    <path id="Path_10515" data-name="Path 10515" d="M456.355,433.776s-2.173-2.39-2.607-1.955-1.738.652-1.521,1.521,4.78,3.694,4.78,3.694Z" transform="translate(-385.68 -403.1)" fill="#0f4989" opacity="0.92"/>
    <path id="Path_10516" data-name="Path 10516" d="M340.834,449.038v1.738s.217,3.911-1.086,3.694-.652-3.476-.652-3.476l.217-1.956Z" transform="translate(-257.774 -418.579)" fill="#ffb8b8"/>
    <path id="Path_10517" data-name="Path 10517" d="M251,570.557s1.955,3.042,2.607,3.259,4.128,2.173,4.563,4.128l3.042,3.911-1.521,1.956s-6.953-7.387-8.908-8.039-3.911-3.911-3.911-3.911Z" transform="translate(-168.597 -527.496)" fill="#ffb8b8"/>
    <path id="Path_10518" data-name="Path 10518" d="M428.511,522.369s-4.128.652-3.476,3.259,6.953,8.039,6.953,8.039l.217,1.3,2.39.435,1.086-1.086-.217-.652s-2.607-2.39-2.825-3.259-2.607-4.346-3.694-4.563l1.521-.869Z" transform="translate(-361.53 -484.306)" fill="#ffb8b8"/>
    <path id="Path_10519" data-name="Path 10519" d="M229.432,669.905s-.869-1.3.435-1.086,2.173.435,2.173,1.3-1.086,6.953-2.39,6.518-.217-2.39-.217-2.39-.652-1.738-1.086-1.956-.435-1.3,0-1.3S229.65,670.34,229.432,669.905Z" transform="translate(-137.464 -615.547)" fill="#2f2e41"/>
    <path id="Path_10520" data-name="Path 10520" d="M419.584,629.239s0-1.086.869,0,1.3,1.955.435,2.607a43.732,43.732,0,0,1-3.911,2.173s-3.259.652-2.825-.869c0,0,2.173-1.086,2.173-1.956s0-2.39.652-1.955S419.584,629.891,419.584,629.239Z" transform="translate(-346.084 -579.66)" fill="#2f2e41"/>
    <path id="Path_10521" data-name="Path 10521" d="M346.646,476.275s3.042.435,2.825,4.78c0,0,3.911,3.911,2.825,5.215s-3.476,3.694-4.346,3.042-3.476-5.649-3.476-5.649-6.084,2.173-7.17,1.086a14.882,14.882,0,0,1-2.173-3.694l5.432-2.825Z" transform="translate(-269.018 -442.992)" fill="#f1a00a"/>
    <circle id="Ellipse_736" data-name="Ellipse 736" cx="2.607" cy="2.607" r="2.607" transform="translate(66.547 15.684)" fill="#ffb8b8"/>
    <path id="Path_10522" data-name="Path 10522" d="M437.251,333.8a16.174,16.174,0,0,0,1.955,2.607c.435.217-3.042,2.39-3.042,2.39s0-2.825-1.086-3.476Z" transform="translate(-366.141 -315.296)" fill="#ffb8b8"/>
    <path id="Path_10523" data-name="Path 10523" d="M387,353.953s3.476-1.086,4.128.652,2.173,5,1.956,7.17-.652,1.738,0,2.39,1.086.217.869,1.086-.435.869-.217,1.3-2.607,1.956-5,2.173l-2.39.217s0-3.911-.435-4.78a12.708,12.708,0,0,1-1.3-3.259v-1.725a6.6,6.6,0,0,1,.869-3.273h0A11.943,11.943,0,0,1,387,353.953Z" transform="translate(-315.675 -333.055)" fill="#0f4989"/>
    <path id="Path_10524" data-name="Path 10524" d="M334.3,365.232s8.039.652,8.908,2.825,1.3,6.518.435,6.518-1.955.435-2.173,0-1.086-4.78-1.3-4.78-6.736-.652-6.736-.652S330.608,365.667,334.3,365.232Z" transform="translate(-260.367 -343.464)" fill="#0f4989"/>
    <path id="Path_10525" data-name="Path 10525" d="M448.645,305.433s-.692-1.2-1.557-.158-2.272-.875-2.056-1.284.979.018,2.286-.409,3.825-1.3,4.247,1.542-.583,2.542-.583,2.542-.46-2.516-.876-1.793l-.416.723-.361.089Z" transform="translate(-379.595 -287.788)" fill="#2f2e41"/>
    <rect id="Rectangle_3348" data-name="Rectangle 3348" width="5.679" height="0.658" transform="translate(26.42 45.929)" fill="#2f2e41"/>
    <ellipse id="Ellipse_742" data-name="Ellipse 742" cx="0.494" cy="1.975" rx="0.494" ry="1.975" transform="translate(25.926 44.282)" fill="#2f2e41"/>
    <ellipse id="Ellipse_743" data-name="Ellipse 743" cx="0.494" cy="1.975" rx="0.494" ry="1.975" transform="translate(31.605 44.282)" fill="#2f2e41"/>
    <path id="Path_10541" data-name="Path 10541" d="M81,555.11c0-2.425,1.5-4.392,3.354-4.392a3.241,3.241,0,0,1,2.791,1.956,2.008,2.008,0,0,1,.641-.105,2.184,2.184,0,0,1,1.5.634,3.415,3.415,0,0,1,3.022-2.485,3.323,3.323,0,0,1,2.908,2.2,2.085,2.085,0,0,1,1.148-.354c1.422,0,2.574,1.509,2.574,3.37a4.141,4.141,0,0,1-.406,1.815H81.676A5.31,5.31,0,0,1,81,555.11Z" transform="translate(10.882 -509.715)" fill="#f1a00a" opacity="0.3"/>
  </g>
</svg>
