<svg xmlns="http://www.w3.org/2000/svg" width="87.923" height="94.605" viewBox="0 0 87.923 94.605">
  <g id="undraw_File_searching_re_3evy" transform="translate(-0.004 0)">
    <path id="Path_10476" data-name="Path 10476" d="M366.776,192.713,328.769,202.5a5.026,5.026,0,0,1-6.113-3.609l-11.494-44.635a5.026,5.026,0,0,1,3.609-6.113l35.359-9.105,9.05,4.051,11.2,43.511a5.026,5.026,0,0,1-3.609,6.113Z" transform="translate(-310.999 -139.037)" fill="#f2f2f2"/>
    <path id="Path_10477" data-name="Path 10477" d="M323.187,158.045a3.579,3.579,0,0,0-2.57,4.353l11.494,44.635a3.579,3.579,0,0,0,4.353,2.57l38.006-9.787a3.579,3.579,0,0,0,2.57-4.353l-11.031-42.837-7.953-3.561Z" transform="translate(-319.054 -147.54)" fill="#fff"/>
    <path id="Path_10478" data-name="Path 10478" d="M576.689,143.984l-5.882,1.515a1.672,1.672,0,0,1-2.036-1.2l-1.119-4.344a.1.1,0,0,1,.144-.122l8.909,3.957a.1.1,0,0,1-.016.2Z" transform="translate(-528.605 -139.702)" fill="#f2f2f2"/>
    <path id="Path_10479" data-name="Path 10479" d="M504.463,408.593l-17.3,4.456a.836.836,0,1,1-.417-1.619l17.3-4.456a.836.836,0,0,1,.417,1.619Z" transform="translate(-459.473 -366.193)" fill="#ccc"/>
    <path id="Path_10480" data-name="Path 10480" d="M512.427,420.9l-20.643,5.316a.836.836,0,1,1-.417-1.619l20.643-5.316a.836.836,0,0,1,.417,1.619Z" transform="translate(-463.395 -376.629)" fill="#ccc"/>
    <circle id="Ellipse_44" data-name="Ellipse 44" cx="2.955" cy="2.955" r="2.955" transform="translate(17.669 46.313)" fill="#e6e6e6"/>
    <path id="Path_10481" data-name="Path 10481" d="M421.694,234.279l-22.981,5.916a2.589,2.589,0,0,1-3.149-1.86l-4.816-18.709a2.589,2.589,0,0,1,1.86-3.149l22.981-5.916a2.589,2.589,0,0,1,3.149,1.86l4.816,18.709A2.589,2.589,0,0,1,421.694,234.279Z" transform="translate(-378.544 -199.612)" fill="#fff"/>
    <path id="Path_10482" data-name="Path 10482" d="M421.694,234.279l-22.981,5.916a2.589,2.589,0,0,1-3.149-1.86l-4.816-18.709a2.589,2.589,0,0,1,1.86-3.149l22.981-5.916a2.589,2.589,0,0,1,3.149,1.86l4.816,18.709A2.589,2.589,0,0,1,421.694,234.279Zm-29.01-17.507a2.284,2.284,0,0,0-1.641,2.779l4.816,18.709a2.284,2.284,0,0,0,2.779,1.641l22.981-5.916a2.284,2.284,0,0,0,1.641-2.779L418.443,212.5a2.284,2.284,0,0,0-2.779-1.641Z" transform="translate(-378.544 -199.612)" fill="#e6e6e6"/>
    <path id="Path_411" data-name="Path 411" d="M479.283,247.784l-11.6,2.986a.415.415,0,0,1-.5-.261.4.4,0,0,1,.282-.508l11.806-3.039c.477.242.351.736.013.823Z" transform="translate(-443.404 -230.544)" fill="#f2f2f2"/>
    <path id="Path_412" data-name="Path 412" d="M482.726,261.158l-11.6,2.986a.415.415,0,0,1-.5-.261.4.4,0,0,1,.282-.508l11.806-3.039c.477.242.351.736.013.823Z" transform="translate(-446.324 -241.883)" fill="#f2f2f2"/>
    <path id="Path_413" data-name="Path 413" d="M430.657,269.008l-3.54.911a.451.451,0,0,1-.548-.324l-1.075-4.177a.451.451,0,0,1,.324-.548l3.54-.911a.451.451,0,0,1,.548.324l1.075,4.177a.451.451,0,0,1-.324.548Z" transform="translate(-408.061 -244.944)" fill="#e6e6e6"/>
    <path id="Path_414" data-name="Path 414" d="M455.536,288.6l-17.7,4.557a.415.415,0,0,1-.5-.261.4.4,0,0,1,.282-.508l17.909-4.61c.477.242.351.736.013.823Z" transform="translate(-418.095 -265.149)" fill="#f2f2f2"/>
    <path id="Path_415" data-name="Path 415" d="M458.98,301.976l-17.7,4.557a.415.415,0,0,1-.5-.261.4.4,0,0,1,.282-.508l17.909-4.61c.477.242.351.736.013.823Z" transform="translate(-421.016 -276.492)" fill="#f2f2f2"/>
    <path id="Path_416" data-name="Path 416" d="M462.422,315.345l-17.7,4.557a.415.415,0,0,1-.5-.261.4.4,0,0,1,.282-.508l17.909-4.61c.477.242.351.736.013.823Z" transform="translate(-423.934 -287.828)" fill="#f2f2f2"/>
    <path id="Path_417" data-name="Path 417" d="M465.865,328.722l-17.7,4.557a.415.415,0,0,1-.5-.261.4.4,0,0,1,.282-.508l17.909-4.61c.477.242.351.736.013.823Z" transform="translate(-426.853 -299.17)" fill="#f2f2f2"/>
    <path id="Path_418" data-name="Path 418" d="M469.307,342.092l-17.7,4.557a.415.415,0,0,1-.5-.261.4.4,0,0,1,.282-.508l17.909-4.61c.477.242.351.736.013.823Z" transform="translate(-429.772 -310.506)" fill="#f2f2f2"/>
    <path id="Path_395" data-name="Path 395" d="M441.352,455.8a.306.306,0,0,1-.194-.013l0,0-.8-.341a.309.309,0,0,1,.241-.568l.522.222.683-1.608a.308.308,0,0,1,.4-.163h0l0,.01,0-.011a.309.309,0,0,1,.163.4l-.8,1.89a.309.309,0,0,1-.208.178Z" transform="translate(-420.51 -405.498)" fill="#fff"/>
    <path id="Path_10483" data-name="Path 10483" d="M526.741,290.846H487.495a5.026,5.026,0,0,1-5.02-5.02V239.735a5.026,5.026,0,0,1,5.02-5.02h36.512l7.754,6.18v44.931A5.025,5.025,0,0,1,526.741,290.846Z" transform="translate(-456.387 -220.161)" fill="#e6e6e6"/>
    <path id="Path_10484" data-name="Path 10484" d="M495.549,244.214a3.579,3.579,0,0,0-3.575,3.575v46.091a3.579,3.579,0,0,0,3.575,3.575h39.246a3.579,3.579,0,0,0,3.575-3.575V249.646l-6.814-5.431Z" transform="translate(-464.441 -228.215)" fill="#fff"/>
    <path id="Path_10485" data-name="Path 10485" d="M619.039,323H601.171a.836.836,0,0,1,0-1.672h17.868a.836.836,0,0,1,0,1.672Z" transform="translate(-556.318 -293.599)" fill="#f1a00a"/>
    <path id="Path_10486" data-name="Path 10486" d="M622.487,341.547H601.171a.836.836,0,0,1,0-1.672h21.316a.836.836,0,1,1,0,1.672Z" transform="translate(-556.318 -309.324)" fill="#f1a00a"/>
    <path id="Path_10487" data-name="Path 10487" d="M619.043,404.443H601.175a.836.836,0,0,0,0,1.672h17.868a.836.836,0,1,0,0-1.672Z" transform="translate(-556.322 -364.07)" fill="#ccc"/>
    <path id="Path_10488" data-name="Path 10488" d="M622.491,422.993H601.175a.836.836,0,0,0,0,1.672h21.316a.836.836,0,1,0,0-1.672Z" transform="translate(-556.322 -379.798)" fill="#ccc"/>
    <path id="Path_10489" data-name="Path 10489" d="M619.039,489.235H601.171a.836.836,0,0,1,0-1.672h17.868a.836.836,0,0,1,0,1.672Z" transform="translate(-556.318 -434.546)" fill="#ccc"/>
    <path id="Path_10490" data-name="Path 10490" d="M622.487,507.782H601.171a.836.836,0,0,1,0-1.672h21.316a.836.836,0,1,1,0,1.672Z" transform="translate(-556.318 -450.272)" fill="#ccc"/>
    <circle id="Ellipse_44-2" data-name="Ellipse 44" cx="2.955" cy="2.955" r="2.955" transform="translate(34.457 27.022)" fill="#f1a00a"/>
    <path id="Path_395-2" data-name="Path 395" d="M549.4,330.981a.306.306,0,0,1-.184-.061l0,0-.694-.531a.309.309,0,0,1,.375-.49l.45.345,1.063-1.387a.308.308,0,0,1,.432-.057h0l-.007.009.007-.009a.309.309,0,0,1,.057.433l-1.25,1.63a.308.308,0,0,1-.245.12Z" transform="translate(-512.281 -299.878)" fill="#fff"/>
    <path id="Path_10491" data-name="Path 10491" d="M545.4,402.741a2.954,2.954,0,0,1-2.954,2.956.64.64,0,0,1-.076,0,2.954,2.954,0,1,1,3.03-2.953Z" transform="translate(-504.729 -360.121)" fill="#ccc"/>
    <circle id="Ellipse_44-3" data-name="Ellipse 44" cx="2.955" cy="2.955" r="2.955" transform="translate(34.457 52.309)" fill="#ccc"/>
    <path id="Path_10492" data-name="Path 10492" d="M762.308,241.745h-6.074a1.672,1.672,0,0,1-1.672-1.672v-4.486a.1.1,0,0,1,.169-.082l7.641,6.053a.1.1,0,0,1-.065.186Z" transform="translate(-687.085 -220.811)" fill="#ccc"/>
    <path id="Path_10493" data-name="Path 10493" d="M558.883,402.976a2.954,2.954,0,0,1-2.954,2.956.639.639,0,0,1-.076,0,6.4,6.4,0,0,1,.573-5.866A2.956,2.956,0,0,1,558.883,402.976Z" transform="translate(-518.214 -360.357)" fill="#f1a00a"/>
    <path id="Path_10494" data-name="Path 10494" d="M600.334,405.28a.838.838,0,0,1,.837-.837h4.452a6.323,6.323,0,0,1,.549,1.672h-5a.837.837,0,0,1-.837-.835Z" transform="translate(-556.318 -364.07)" fill="#f1a00a"/>
    <path id="Path_10495" data-name="Path 10495" d="M606.28,422.993a6.38,6.38,0,0,1-.222,1.672h-4.883a.836.836,0,0,1,0-1.672Z" transform="translate(-556.322 -379.798)" fill="#f1a00a"/>
    <path id="Path_10496" data-name="Path 10496" d="M643.029,446.828a.913.913,0,0,1-1.255.3l-10.649-6.5a.913.913,0,1,1,.951-1.558l10.649,6.5A.913.913,0,0,1,643.029,446.828Z" transform="translate(-582.054 -393.323)" fill="#3f3d56"/>
    <path id="Path_10497" data-name="Path 10497" d="M566.362,386.173a7.3,7.3,0,1,1-2.431-10.036,7.3,7.3,0,0,1,2.431,10.036Zm-10.909-6.654a5.476,5.476,0,1,0,7.527-1.823,5.476,5.476,0,0,0-7.527,1.823Z" transform="translate(-516.036 -339.163)" fill="#3f3d56"/>
    <circle id="Ellipse_735" data-name="Ellipse 735" cx="3.736" cy="3.736" r="3.736" transform="translate(69.984 36.905)" fill="#a0616a"/>
    <path id="Path_10498" data-name="Path 10498" d="M793.569,463.751a1.674,1.674,0,0,1,1.266-2.153,1.6,1.6,0,0,1,.222-.027l3.935-6.316-3.595-3.418a1.435,1.435,0,1,1,2-2.062l4.963,4.894.01.012a1.3,1.3,0,0,1-.09,1.549l-5.514,6.522a1.554,1.554,0,0,1,.041.159,1.674,1.674,0,0,1-1.5,2q-.071.006-.142.006A1.679,1.679,0,0,1,793.569,463.751Z" transform="translate(-720.09 -402.164)" fill="#a0616a"/>
    <path id="Path_10499" data-name="Path 10499" d="M428.811,568.905h-1.865l-.887-7.193h2.752Z" transform="translate(-361.245 -476.266)" fill="#a0616a"/>
    <path id="Path_10500" data-name="Path 10500" d="M724.76,746.451h-6.013v-.076a2.341,2.341,0,0,1,2.341-2.341h3.673Z" transform="translate(-656.718 -652.004)" fill="#2f2e41"/>
    <path id="Path_10501" data-name="Path 10501" d="M532.313,557.6l-1.6.954-4.443-5.727,2.365-1.408Z" transform="translate(-446.21 -467.539)" fill="#a0616a"/>
    <path id="Path_10502" data-name="Path 10502" d="M854.917,728.125,849.75,731.2l-.039-.065a2.34,2.34,0,0,1,.814-3.208h0l3.156-1.879Z" transform="translate(-767.481 -636.754)" fill="#2f2e41"/>
    <path id="Path_10503" data-name="Path 10503" d="M730.214,537.73c-1.249-14.711-1.992-28.377,2.574-33.951l.035-.043,7.686,3.074.013.027c.026.056,2.582,5.679,1.986,9.461l1.9,8.72,6.181,10.35a.685.685,0,0,1-.312.978l-2.686,1.182a.688.688,0,0,1-.859-.269L740,526.3l-3.8-8.41a.228.228,0,0,0-.435.07l-2.105,19.79a.683.683,0,0,1-.681.612H730.9a.689.689,0,0,1-.682-.627Z" transform="translate(-665.635 -448.259)" fill="#2f2e41"/>
    <path id="Path_10504" data-name="Path 10504" d="M751.82,449.074l-.037-.018-.006-.04a12.98,12.98,0,0,1,1.01-6.636,5.269,5.269,0,0,1,6.115-3.155h0a5.262,5.262,0,0,1,3.356,2.58,5.206,5.206,0,0,1,.361,4.172c-1.207,3.529-2.772,6.831-2.788,6.864l-.033.069Z" transform="translate(-684.64 -393.438)" fill="#f1a00a"/>
    <path id="Path_10505" data-name="Path 10505" d="M693.937,453.373a1.674,1.674,0,0,1,2.46.432,1.6,1.6,0,0,1,.1.2l7.295,1.474,1.942-4.564a1.435,1.435,0,1,1,2.63,1.148l-2.846,6.363-.008.014a1.3,1.3,0,0,1-1.483.458l-8.04-2.881a1.569,1.569,0,0,1-.135.094,1.674,1.674,0,0,1-2.395-.708q-.031-.065-.055-.131A1.679,1.679,0,0,1,693.937,453.373Z" transform="translate(-635.143 -402.741)" fill="#a0616a"/>
    <path id="Path_10506" data-name="Path 10506" d="M783.85,380.889a3.046,3.046,0,0,0-1.577-1.457,5.133,5.133,0,0,0-2.785.236,5.159,5.159,0,0,1-2.165.128,2.431,2.431,0,0,1-1.729-1.208c-.478-.959-.075-2.1-.1-3.174a3.854,3.854,0,0,0-4.856-3.622,1.922,1.922,0,0,0-2.224.4,2.586,2.586,0,0,0-2.586,2.586H768.3a2.457,2.457,0,0,0,.373,1.815c.437.641,1.2,1.105,1.342,1.867a2.386,2.386,0,0,1-.887,1.975,4.1,4.1,0,0,0-1.3,1.8,2.234,2.234,0,0,0,.32,1.607,5.234,5.234,0,0,0,1.124,1.238,16.49,16.49,0,0,0,6.851,3.5,8.144,8.144,0,0,0,5.381-.249,5.343,5.343,0,0,0,2.352-7.449Z" transform="translate(-696.633 -336.247)" fill="#2f2e41"/>
    <path id="Path_10507" data-name="Path 10507" d="M726.055,759.267h-28.9a.152.152,0,0,1,0-.3h28.9a.152.152,0,0,1,0,.3Z" transform="translate(-638.28 -664.662)" fill="#ccc"/>
  </g>
</svg>
